<svg id="Layer_1" data-name="Layer 1" xmlns="http://www.w3.org/2000/svg" viewBox="0 0 158.72 63.29"><defs><style>.cls-1{fill:#827c78;}.cls-2{fill:#3d5588;}</style></defs><path class="cls-1" d="M154.52,96.47c2.32,0,3.88-1.87,3.88-4.67s-1.44-4.59-3.88-4.59h-2.27v9.26Zm0-12c4.68,0,7.34,2.66,7.34,7.34s-2.68,7.42-7.34,7.42h-5.73V84.46Zm-8.63,14.76H135.28V84.46h3.47v12h7.14Zm-16.81-8.78v2.68H124v3.35h7.27v2.75H120.55V84.46h10.74v2.75H124v3.23Zm-17.21-6h3.63V99.22h-3.63Zm-5.53,6v2.68h-5.43v6.1H97.44V84.46h10.83v2.75h-7.36v3.23Zm-16.81-1.1a2.16,2.16,0,0,0-2.4-2.13H83.94v4.18h3.19c1.55,0,2.4-.85,2.4-2m-9.06,9.88V84.46h6.77c3.57,0,5.75,2.07,5.75,4.88a4.6,4.6,0,0,1-3.94,4.43l4.3,5.45h-4l-5.45-6.93v6.93Zm-6.79-8.78v2.68H68.62v3.35h7.26v2.75H65.15V84.46H75.88v2.75H68.62v3.23ZM54.17,99.22v-12H50.05V84.46H61.79v2.75H57.67v12Zm-14.2,0v-12H35.86V84.46H47.59v2.75H43.48v12ZM26,96.53c1.93,0,3.09-1.24,3.09-3.29V84.46h3.46V93c0,4.21-2.26,6.46-6.55,6.46S19.42,97.21,19.42,93V84.46h3.46v8.78c0,2.06,1.15,3.29,3.1,3.29m-15.69-.06c1.39,0,2.16-.59,2.16-1.7S11.68,93,10.29,93H6.6v3.45Zm-.22-6c1.26,0,2-.51,2-1.59s-.81-1.66-2-1.66H6.6v3.25Zm5.53-1.95a3.39,3.39,0,0,1-2.26,3.25,3.4,3.4,0,0,1,2.6,3.43c0,2.36-2.17,4-5.2,4H3.14V84.46h7.09c3.23,0,5.37,1.61,5.37,4.05" transform="translate(-3.14 -36.17)"/><path class="cls-2" d="M86.33,38.45l15.84,0,2.24-2.24H85.09a2.25,2.25,0,0,0-2.15,2.25v9a2.26,2.26,0,0,1-2,2.25H75.69L78,47.47h0c1.66-1.67,2.74-2.9,2.74-5.26a3.94,3.94,0,0,0-.26-1.36h0a4.71,4.71,0,0,0-1.38-2.13,4.32,4.32,0,0,0-.51-.45L80,36.17H73.32l-.84,1.14H70.69l-2.26,2.26H64.86v6.8l4,0a8.48,8.48,0,0,0,4.21,15.84h.29a5.4,5.4,0,0,0-.66.79c-.16.21-1.24,1.84-1.24,1.84-2,2.75-2.33,3-4.88,3H64.52a2,2,0,0,0-2,2.14v.14H77.23V67.82H72c.19.06,1.55-2,1.55-2l1.69-2.56a2.3,2.3,0,0,1,1.43-1h1.87a10.33,10.33,0,0,0,10.11,8.2,10.49,10.49,0,0,0,2.11-.21A8.61,8.61,0,0,0,92,69.84a10.33,10.33,0,0,0-3.25-20.1H84.35a3.47,3.47,0,0,0,.85-2.27h8l2.21-2.24H85.2V43H97.63l2.24-2.26H85.2V39.58A1.13,1.13,0,0,1,86.33,38.45Zm2.16,29.31-.31,0-.56,0a7.9,7.9,0,0,1-6.57-5.56h7A2.82,2.82,0,0,1,90.88,65,2.55,2.55,0,0,1,88.49,67.76Zm4.45-1.23,0,0A5,5,0,0,0,93.14,65a5.08,5.08,0,0,0-5.09-5.08h-15a6.22,6.22,0,0,1-4-11l4.84-4.86H67.13V41.83h2.26l2.25-2.25h2l.78-1.12h2l-.82,1.12h.23a3.14,3.14,0,0,1,2.33,1.5,3.11,3.11,0,0,1,.28,1.3c0,1-.25,1.66-2.47,3.89l-4.42,4.42a3.67,3.67,0,0,0,2.37,6.39H89.72a5.39,5.39,0,0,1,3.22,9.45ZM88.62,52a7.9,7.9,0,0,1,7.9,7.83,7.76,7.76,0,0,0-6.8-5H74A1.41,1.41,0,0,1,74,52Z" transform="translate(-3.14 -36.17)"/><rect class="cls-2" x="71.82" y="40.82" width="2.01" height="2.01" transform="translate(-11.38 27.57) rotate(-45)"/><rect class="cls-2" x="60.98" y="41.27" width="3.39" height="3.39" transform="translate(45.6 -67.91) rotate(45)"/></svg>